<svg width="40" height="40" viewBox="0 0 40 40" fill="none" xmlns="http://www.w3.org/2000/svg">
<path fill-rule="evenodd" clip-rule="evenodd" d="M32.3218 18.0416C32.1602 17.37 32.5735 16.695 33.2435 16.5333C33.9135 16.37 34.5902 16.7833 34.7518 17.455C35.0535 18.705 35.2135 20.01 35.2135 21.3516C35.2135 30.4933 27.7918 37.9166 18.6485 37.9166C9.50683 37.9166 2.0835 30.4933 2.0835 21.3516C2.0835 12.2083 9.50683 4.78662 18.6485 4.78662C19.9902 4.78662 21.2952 4.94662 22.5452 5.24829C23.2168 5.40995 23.6302 6.08662 23.4668 6.75662C23.3052 7.42662 22.6302 7.83995 21.9585 7.67829C20.8968 7.42162 19.7885 7.28662 18.6485 7.28662C10.8852 7.28662 4.5835 13.5883 4.5835 21.3516C4.5835 29.115 10.8852 35.4166 18.6485 35.4166C26.4118 35.4166 32.7135 29.115 32.7135 21.3516C32.7135 20.2116 32.5785 19.1033 32.3218 18.0416Z" fill="#284C88"/>
<path fill-rule="evenodd" clip-rule="evenodd" d="M24.6069 21.3516C24.6069 20.6616 25.1669 20.1016 25.8569 20.1016C26.5452 20.1016 27.1069 20.6616 27.1069 21.3516C27.1069 26.0183 23.3169 29.8083 18.6486 29.8083C13.9819 29.8083 10.1919 26.0183 10.1919 21.3516C10.1919 16.6833 13.9819 12.8933 18.6486 12.8933C19.3386 12.8933 19.8986 13.455 19.8986 14.1433C19.8986 14.8333 19.3386 15.3933 18.6486 15.3933C15.3602 15.3933 12.6919 18.0633 12.6919 21.3516C12.6919 24.64 15.3602 27.3083 18.6486 27.3083C21.9369 27.3083 24.6069 24.64 24.6069 21.3516Z" fill="#284C88"/>
<path fill-rule="evenodd" clip-rule="evenodd" d="M37.5503 9.31328L32.4553 14.4099C32.2203 14.6449 31.902 14.7766 31.5703 14.7766H26.4736C25.7836 14.7766 25.2236 14.2166 25.2236 13.5266V8.42995C25.2236 8.09828 25.3553 7.77995 25.5903 7.54495L30.687 2.44995C30.9936 2.14328 31.437 2.01661 31.8586 2.11661C32.2803 2.21661 32.6203 2.52661 32.757 2.93828L33.8336 6.16662L37.062 7.24328C37.4736 7.37995 37.7836 7.71995 37.8836 8.14162C37.9836 8.56328 37.857 9.00661 37.5503 9.31328ZM34.3536 8.97661L32.4503 8.34162C32.077 8.21662 31.7836 7.92328 31.6586 7.54995L31.0236 5.64662L27.7236 8.94661V12.2766H31.0536L34.3536 8.97661Z" fill="#284C88"/>
<path fill-rule="evenodd" clip-rule="evenodd" d="M25.5902 12.6416C26.0785 12.1533 26.8702 12.1533 27.3585 12.6416C27.8468 13.13 27.8468 13.9216 27.3585 14.41L19.7135 22.0533C19.2252 22.5416 18.4335 22.5416 17.9468 22.0533C17.4585 21.5666 17.4585 20.775 17.9468 20.2866L25.5902 12.6416Z" fill="#284C88"/>
</svg>
