<svg width="36" height="36" viewBox="0 0 36 36" fill="none" xmlns="http://www.w3.org/2000/svg">
<path d="M32.6354 11.2275C32.0566 8.66815 30.4647 6.81753 28.1416 5.65315C25.1997 4.1794 22.2635 4.19065 19.4166 5.95128C18.911 6.26628 18.4716 6.6769 18.0104 7.0369C17.5098 6.67184 17.0091 6.26065 16.4691 5.91753C14.5229 4.69128 12.4135 4.24184 10.1523 4.75878C7.69414 5.3269 5.80977 6.73315 4.45977 8.84253C3.90852 9.70878 3.52039 10.6144 3.30664 11.5594H32.7029C32.686 11.4525 32.6635 11.34 32.6354 11.2275Z" fill="#F6EC19"/>
<path d="M17.1609 31.0106C17.7459 31.5956 18.2634 31.5956 18.8484 31.0162C20.7216 29.1374 22.6003 27.2587 24.4734 25.3856C24.8616 24.998 25.2497 24.6093 25.6378 24.2212H10.3828C12.6384 26.4881 14.8997 28.7493 17.1609 31.0106Z" fill="#DB312D"/>
<path d="M32.7031 11.5593H3.30683C3.08183 12.5268 3.04245 13.5281 3.19433 14.5693C3.34058 15.5818 3.65558 16.5155 4.11683 17.3756C4.5612 18.203 5.14058 18.9675 5.83808 19.665C7.3512 21.1893 8.86432 22.7081 10.3831 24.2212H25.6381C27.1793 22.6861 28.72 21.15 30.2506 19.6031C30.9419 18.9 31.4993 18.158 31.9156 17.3756C32.8549 15.6262 33.1137 13.6743 32.7031 11.5593Z" fill="#239045"/>
</svg>
