<svg width="90" height="90" viewBox="0 0 90 90" fill="none" xmlns="http://www.w3.org/2000/svg">
<g clip-path="url(#clip0_1391_292)">
<path d="M87.0394 27.2145C85.2014 26.3517 84.0279 24.5044 84.0279 22.474V22.4678C84.0279 20.9491 82.7834 19.7647 81.2648 19.7503C80.1866 19.7399 79.1549 19.3071 78.3917 18.544L69.3959 9.54826C67.209 7.36137 64.2451 6.10365 61.1526 6.12246C59.9754 6.12967 58.8446 5.66754 58.0098 4.83926C54.9767 1.83006 50.9733 0 46.7008 0C40.402 0 34.3614 2.50207 29.9075 6.95584C29.3098 7.5535 28.5273 7.92809 27.6879 8.02758C25.3885 8.30004 23.2333 9.33715 21.5793 10.9911L21.4906 11.0798C19.5501 13.0203 18.4599 15.6521 18.4599 18.3962C18.4599 20.9914 16.356 23.0952 13.7609 23.0952H13.3547C11.4719 23.0952 9.66647 23.8431 8.3351 25.1743C7.72918 25.7803 6.90723 26.1185 6.05029 26.119C3.85883 26.1206 1.83401 27.2886 0.735548 29.1846C-1.38842 32.8507 1.35026 37.4405 5.58729 37.4405H83.8361C85.5823 37.4405 87.257 36.7469 88.4917 35.5122C91.0136 32.9903 90.268 28.7299 87.0394 27.2145Z" fill="#34A853"/>
<path d="M0.357422 33.819C1.1335 35.8631 3.1026 37.4408 5.58656 37.4408H22.6658L23.0664 33.819H0.357422Z" fill="#34A853"/>
<path d="M25.041 33.819L30.0225 37.1152C30.1327 37.2254 30.2441 37.3339 30.3568 37.4408H42.2419L43.9271 33.819H25.041Z" fill="#34A853"/>
<path d="M87.0382 27.2145C85.2002 26.3518 84.0267 24.5045 84.0267 22.474V22.4679C84.0267 20.9491 82.7821 19.7647 81.2636 19.7503C80.1853 19.7399 79.1537 19.3071 78.3904 18.5441L69.3946 9.5483C67.5066 7.66023 65.0393 6.46474 62.4102 6.18542C62.4102 6.18542 77.9568 22.7301 79.7947 23.5927C83.0233 25.1081 83.769 29.3685 81.2471 31.8904C80.0124 33.1251 78.3377 33.8188 76.5915 33.8188H56.1218C53.8728 34.6147 56.6104 35.8619 54.9395 37.4406H83.8349C85.5811 37.4406 87.2558 36.7469 88.4905 35.5122C91.0124 32.9903 90.2667 28.7299 87.0382 27.2145Z" fill="#34A853"/>
<path d="M67.7839 28.38C66.6276 28.6246 65.3314 28.2651 64.3857 27.3194C64.3539 27.2876 64.3228 27.2554 64.2924 27.2227L60.7256 28.1784C57.9669 28.9176 55.4444 30.1602 53.2468 31.7911C51.7655 32.8904 49.6669 31.8612 49.6669 30.0167V23.301C48.1268 23.1792 46.7983 22.369 46.0396 21.2032C45.2532 22.4117 43.8543 23.2381 42.2422 23.3116V40.7339C42.2422 41.5512 41.5382 42.1815 40.724 42.1112C36.6808 41.7616 32.9262 40.0185 30.0228 37.1151L24.5166 31.6091C24.0576 31.8519 23.5264 31.9906 22.9606 31.9906C21.8164 31.9906 20.8148 31.424 20.2634 30.5766C19.7118 31.424 18.7102 31.9906 17.5662 31.9906C17.4407 31.9906 17.317 31.9837 17.1953 31.9706L26.1814 40.9567C30.0484 44.8239 35.0647 47.1248 40.4601 47.5409C41.4686 47.6186 42.2422 48.4696 42.2422 49.481V49.4815C42.2422 57.2214 40.2049 64.8249 36.3349 71.5278L35.4078 73.1336C33.514 76.4139 31.1984 79.4317 28.52 82.1099L20.9748 89.6551C20.8475 89.7824 20.9377 90.0002 21.1177 90.0002H53.2883C53.4683 90.0002 53.5587 89.7824 53.4312 89.6551L51.6159 87.8398C47.1936 83.4175 45.4666 76.9718 47.0852 70.9307C47.4684 69.5005 47.8092 68.0607 48.1075 66.6128C48.3714 65.3326 49.0769 64.1637 50.1571 63.4275C51.0645 62.8091 51.6602 61.7674 51.6602 60.5865C51.6602 59.7308 51.3473 58.9481 50.8297 58.3465C49.9652 57.3421 49.531 56.0401 49.5904 54.7161C49.6412 53.586 49.6665 52.4543 49.6665 51.3218V49.6707C49.6665 42.059 54.7789 35.3962 62.1313 33.4262L68.7291 31.6584C67.8702 30.7246 67.5496 29.4882 67.7839 28.38Z" fill="#AF6E5A"/>
<path d="M67.7845 28.38C66.6283 28.6245 65.332 28.265 64.3863 27.3193C64.3545 27.2875 64.3234 27.2554 64.293 27.2227L60.7262 28.1784C57.9675 28.9175 55.4451 30.1601 53.2474 31.791C52.9957 31.9777 52.7262 32.103 52.4524 32.1734C47.9724 35.2437 45.1402 40.3832 45.1402 46.0487V47.6998C45.1402 48.8323 45.1147 49.9642 45.0641 51.0941C45.0047 52.4181 45.4387 53.7201 46.3034 54.7245C46.821 55.326 47.1339 56.1086 47.1339 56.9645C47.1339 58.1454 46.5382 59.1871 45.6308 59.8055C44.5507 60.5416 43.8451 61.7106 43.5812 62.9908C43.2829 64.4387 42.9421 65.8785 42.5589 67.3087C40.9403 73.3498 42.6673 79.7955 47.0896 84.2178C47.8868 85.015 47.3222 86.3781 46.1947 86.3781H24.2523L20.9756 89.6549C20.8483 89.7821 20.9385 89.9999 21.1185 89.9999H53.2891C53.4691 89.9999 53.5593 89.7821 53.432 89.6549L51.6167 87.8396C47.1944 83.4173 45.4674 76.9716 47.086 70.9305C47.4692 69.5003 47.81 68.0605 48.1083 66.6126C48.3721 65.3324 49.0777 64.1634 50.1579 63.4273C51.0653 62.8089 51.661 61.7672 51.661 60.5863C51.661 59.7306 51.3481 58.9478 50.8304 58.3463C49.966 57.3419 49.5318 56.0399 49.5912 54.7159C49.642 53.5858 49.6673 52.4541 49.6673 51.3216V49.6705C49.6673 42.0588 54.7797 35.396 62.1321 33.426L68.7302 31.658C67.8709 30.7246 67.5502 29.4881 67.7845 28.38Z" fill="#AF6E5A"/>
<path d="M26.4268 28.9612C25.7437 28.6518 24.9388 28.9552 24.6296 29.6383C24.3562 30.2421 23.7016 30.6323 22.9623 30.6323C22.3205 30.6323 21.7232 30.3271 21.4035 29.8357C21.1528 29.4505 20.7248 29.2181 20.2653 29.2181C19.8058 29.2181 19.3774 29.4504 19.1268 29.8355C18.8068 30.327 18.2095 30.6323 17.5678 30.6323C16.58 30.6323 15.7767 29.9297 15.7767 29.0661C15.7767 28.316 15.1687 27.708 14.4186 27.708C13.6684 27.708 13.0605 28.316 13.0605 29.0661C13.0605 31.4275 15.0826 33.3487 17.5679 33.3487C18.562 33.3487 19.5003 33.0456 20.2653 32.5021C21.0301 33.0458 21.9683 33.3487 22.9625 33.3487C24.7663 33.3487 26.392 32.3319 27.1041 30.7587C27.4134 30.0753 27.11 29.2705 26.4268 28.9612Z" fill="#34A853"/>
<path d="M73.9997 32.2191C73.7351 31.517 72.9517 31.1623 72.2498 31.4268C71.441 31.7315 70.4819 31.4928 69.8069 30.8178C69.2223 30.2331 68.957 29.4068 69.1147 28.6611C69.2096 28.2116 69.0713 27.7446 68.7463 27.4197C68.4211 27.0947 67.9537 26.9566 67.5049 27.0513C66.7594 27.209 65.9329 26.9437 65.3479 26.3589C64.8497 25.8607 64.582 25.1965 64.613 24.5364C64.6483 23.787 64.0694 23.1511 63.3203 23.1159C62.5718 23.0778 61.9349 23.6594 61.8999 24.4086C61.833 25.8312 62.3897 27.2422 63.4273 28.2797C64.2558 29.1085 65.3006 29.6223 66.3957 29.7703C66.5437 30.8654 67.0575 31.9102 67.8862 32.7387C68.8843 33.7368 70.2051 34.2729 71.5266 34.2729C72.0953 34.2727 72.6644 34.1736 73.2074 33.969C73.9095 33.7043 74.2641 32.921 73.9997 32.2191Z" fill="#34A853"/>
<path d="M73.2061 33.9688C73.3102 33.9296 73.4065 33.879 73.4944 33.8188H69.4434C70.1038 34.1177 70.8143 34.2729 71.5253 34.2727C72.094 34.2727 72.663 34.1734 73.2061 33.9688Z" fill="#34A853"/>
<path d="M58.463 15.8776C57.7128 15.8776 57.105 16.4856 57.105 17.2357C57.105 18.3719 56.0624 19.2963 54.7813 19.2963C53.5 19.2963 52.4577 18.3719 52.4577 17.2357C52.4577 16.4856 51.8496 15.8776 51.0996 15.8776C50.3495 15.8776 49.7415 16.4856 49.7415 17.2357C49.7415 18.9574 50.7076 20.4693 52.1528 21.3099C51.5744 21.7221 50.848 21.9585 50.0737 21.9585C48.8895 21.9585 47.7806 21.3851 47.1798 20.4621C46.9292 20.077 46.501 19.8448 46.0415 19.8448C45.582 19.8448 45.1538 20.077 44.9031 20.4621C44.3023 21.3851 43.1936 21.9585 42.0092 21.9585C40.1621 21.9585 38.6595 20.6066 38.6595 18.9449C38.6595 18.1949 38.0515 17.5869 37.3014 17.5869C36.5514 17.5869 35.9434 18.1949 35.9434 18.9449C35.9434 22.1044 38.6646 24.6749 42.0094 24.6749C43.5278 24.6749 44.9483 24.1533 46.0416 23.2315C47.1348 24.1533 48.5555 24.6749 50.0739 24.6749C52.1852 24.6749 54.1133 23.6473 55.2113 21.9953C57.7902 21.788 59.8218 19.7326 59.8218 17.2357C59.8211 16.4858 59.2131 15.8776 58.463 15.8776Z" fill="#34A853"/>
<path d="M31.7215 86.6692C31.374 86.6692 31.0263 86.5366 30.7612 86.2714C30.2307 85.741 30.2307 84.8811 30.761 84.3506C33.6343 81.4771 36.1211 78.2362 38.1523 74.7181L39.0795 73.1122C39.4544 72.4625 40.2848 72.2398 40.9347 72.6151C41.5842 72.99 41.8069 73.8208 41.4318 74.4703L40.5046 76.0764C38.3549 79.8002 35.7228 83.2304 32.6818 86.2715C32.4167 86.5364 32.069 86.6692 31.7215 86.6692ZM47.9514 42.1983C48.6675 40.4274 49.6336 38.7682 50.8224 37.2671C51.288 36.6791 51.1889 35.8248 50.6007 35.3591C50.0127 34.8937 49.1586 34.9928 48.6928 35.5808C47.3433 37.285 46.2465 39.1687 45.4331 41.1796C45.1519 41.875 45.4876 42.6667 46.183 42.948C46.35 43.0155 46.5223 43.0475 46.6917 43.0475C47.2287 43.0475 47.7374 42.7268 47.9514 42.1983Z" fill="#AF6E5A"/>
<path d="M46.1842 42.9479C46.3512 43.0154 46.5234 43.0474 46.6929 43.0474C47.2299 43.0474 47.7388 42.7268 47.9525 42.1982C48.6687 40.4274 49.6348 38.7682 50.8236 37.267C51.2892 36.679 51.1901 35.8247 50.6019 35.3591C50.1452 34.9975 49.5279 34.9767 49.0568 35.261C47.3486 37.3044 46.1279 39.7482 45.5391 42.4046C45.6858 42.6415 45.9063 42.8356 46.1842 42.9479Z" fill="#AF6E5A"/>
<path d="M32.5626 86.3782H30.8828C31.1284 86.5721 31.4256 86.6689 31.7227 86.6689C32.0198 86.6691 32.3168 86.5721 32.5626 86.3782Z" fill="#AF6E5A"/>
</g>
<defs>
<clipPath id="clip0_1391_292">
<rect width="90" height="90" fill="white"/>
</clipPath>
</defs>
</svg>
