<svg width="75" height="75" viewBox="0 0 75 75" fill="none" xmlns="http://www.w3.org/2000/svg">
<g clip-path="url(#clip0_1391_254)">
<path d="M59.951 27.581C61.5504 25.3405 62.5011 22.6055 62.5011 19.643C62.5011 12.0819 56.3718 5.95254 48.8107 5.95254C48.6986 5.95254 48.5901 5.9666 48.4788 5.96938C46.1434 2.37905 42.1032 0 37.5011 0C32.1623 0 27.5779 3.19966 25.539 7.78198C17.3571 9.91934 11.3105 17.3389 11.3105 26.1905C11.3105 31.0573 13.1511 35.4835 16.1545 38.8506C16.1026 39.3858 16.0723 39.9274 16.0723 40.4763C16.0723 49.6811 23.5342 57.143 32.739 57.143C33.7423 57.143 37.7378 57.0535 38.6914 56.8824L39.0948 52.7574C41.4531 54.0354 44.154 54.762 47.0246 54.762C56.2294 54.762 63.6913 47.3001 63.6913 38.0953C63.6916 34.1073 62.2871 30.4496 59.951 27.581Z" fill="#34A853"/>
<path d="M38.6916 50.8783C36.7814 51.371 34.6663 51.3545 32.4058 50.2868C29.3442 48.8408 27.1257 45.9019 26.8253 42.5295C26.7072 41.2049 26.8646 39.9321 27.242 38.7579C27.3904 38.2961 27.1994 37.8057 26.8244 37.4981C23.8978 35.0977 22.0249 31.4613 22.0249 27.3809C22.0249 22.0856 25.1737 17.537 29.6965 15.4749C30.1685 15.2597 30.4729 14.7905 30.4206 14.2745C30.3813 13.8864 30.3582 13.4937 30.3582 13.0951C30.3582 6.89326 34.6744 1.71064 40.4634 0.35625C39.5098 0.134766 38.5225 0 37.5011 0C32.1623 0 27.5779 3.19966 25.539 7.78198C17.3571 9.91934 11.3105 17.3389 11.3105 26.1905C11.3105 31.0573 13.1511 35.4835 16.1545 38.8506C16.1026 39.3858 16.0723 39.9274 16.0723 40.4763C16.0723 49.6811 23.5342 57.143 32.739 57.143C33.7423 57.143 37.7378 57.0535 38.6914 56.8824V53.2444L38.6916 50.8783Z" fill="#65C07D" fill-opacity="0.61"/>
<path d="M36.3096 51.1904C36.2714 51.1904 36.2346 51.1851 36.1965 51.1847L35.1191 73.8095H42.262L41.2078 51.6722C41.17 50.8791 40.3762 50.3074 39.6331 50.5867C38.5989 50.9755 37.4802 51.1904 36.3096 51.1904Z" fill="#AF6E5A"/>
<path d="M41.2078 51.6722C41.17 50.8791 40.3762 50.3074 39.6331 50.5867C38.5989 50.9755 37.4802 51.1905 36.3096 51.1905C36.2714 51.1905 36.2346 51.1853 36.1965 51.1848L35.1191 73.8096H38.6906V54.4295C38.6906 53.9169 39.0186 53.4621 39.5046 53.3001L41.2576 52.7157L41.2078 51.6722Z" fill="#AF6E5A"/>
<path d="M44.6421 75H32.7374C32.0799 75 31.5469 74.4675 31.5469 73.8095C31.5469 73.1515 32.0799 72.619 32.7374 72.619H44.6421C45.2996 72.619 45.8326 73.1515 45.8326 73.8095C45.8326 74.4675 45.2996 75 44.6421 75Z" fill="#65C07D" fill-opacity="0.61"/>
</g>
<defs>
<clipPath id="clip0_1391_254">
<rect width="75" height="75" fill="white"/>
</clipPath>
</defs>
</svg>
