<svg width="40" height="40" viewBox="0 0 40 40" fill="none" xmlns="http://www.w3.org/2000/svg">
<path d="M16.0813 5.73487C12.5868 2.24216 5.74854 1.83716 0.90817 1.83716C0.406876 1.83716 0 2.24395 0 2.74524C0 7.5856 0.403215 14.4239 3.89771 17.9185C5.37257 19.3933 7.63384 20.0526 9.8751 20.0526C12.3107 20.0526 14.7246 19.2735 16.0813 17.9167C18.6841 15.3139 19.1618 8.81347 16.0813 5.73487ZM14.7973 16.6343C12.8538 18.5759 7.45769 18.9083 5.18373 16.6343C2.36301 13.8137 1.8744 8.08332 1.8217 3.65886C6.24617 3.71156 11.9766 4.20008 14.7972 7.0208C17.0712 9.29475 16.7389 14.6928 14.7973 16.6343Z" fill="#284C88"/>
<path d="M39.0919 5.42969C34.2515 5.42969 27.4132 5.8329 23.9186 9.3274C20.8382 12.406 21.3159 18.9065 23.9186 21.5092C25.2754 22.8642 27.6874 23.6434 30.1231 23.6434C32.3643 23.6434 34.6238 22.9859 36.1022 21.5111C39.5949 18.0166 39.9999 11.1783 39.9999 6.33786C40 5.83656 39.5932 5.42969 39.0919 5.42969ZM34.8145 20.2251C32.5406 22.4991 27.1425 22.1667 25.201 20.2251C23.2594 18.2835 22.927 12.8855 25.201 10.6115C28.0217 7.79083 33.752 7.3023 38.1765 7.2496C38.1238 11.6759 37.6352 17.4063 34.8145 20.2251Z" fill="#284C88"/>
<path d="M32.5332 13.2908C32.319 12.8349 31.705 12.6787 31.2528 12.8894C24.2874 16.1641 20.8655 21.8745 19.3107 27.7447C17.3872 15.2632 11.824 11.4581 9.46462 9.84344C9.17038 9.64183 8.94153 9.49471 8.81442 9.36939C8.46024 9.01522 7.88445 9.01522 7.53028 9.36939C7.1761 9.72357 7.1761 10.2994 7.53028 10.6535C7.71009 10.8316 8.02068 11.055 8.44024 11.3419C11.0993 13.16 18.1628 17.9931 18.1628 37.2548C18.1628 37.7561 18.5696 38.163 19.0709 38.163C19.5722 38.163 19.9791 37.7561 19.9791 37.2567C19.9791 29.474 22.0697 19.2138 32.0265 14.535L32.1736 14.4642C32.6259 14.2498 32.7475 13.7448 32.5332 13.2908Z" fill="#284C88"/>
</svg>
