<svg width="100" height="100" viewBox="0 0 100 100" fill="none" xmlns="http://www.w3.org/2000/svg">
<g clip-path="url(#clip0_1881_378)">
<path d="M49.9999 1.12001e-06C30.5468 -0.00410407 12.858 11.2772 4.65796 28.9176C-3.54207 46.5579 -0.763937 67.3532 11.7792 82.2224C10.0188 91.6414 -0.000116441 93.1034 -0.000116441 93.1034C-0.000116441 93.1034 3.44816 100 13.793 100C18.8598 99.8509 23.7246 97.9804 27.5861 94.6965C46.0553 103.957 68.318 100.904 83.6123 87.0131C98.9065 73.1226 104.082 51.2557 96.6374 31.983C89.1925 12.7103 70.6605 0.00147488 49.9999 1.12001e-06Z" fill="#4285F4"/>
<path d="M83.4655 51.6206C84.0832 52.7063 84.432 53.9242 84.4827 55.1723C84.5461 56.2104 84.2806 57.242 83.7241 58.1206C83.0268 58.9965 82.0446 59.6004 80.9483 59.8275C81.7912 60.6141 82.3797 61.6348 82.6379 62.7585C82.7225 63.0967 82.7631 63.4444 82.7586 63.793C82.9596 65.4858 82.1588 67.1412 80.7069 68.0344C79.8246 68.4823 78.8649 68.7574 77.8793 68.8447C78.9462 69.5271 79.8144 70.4786 80.3965 71.6033C80.8173 72.3817 81.0366 73.253 81.0345 74.1378C81.0345 77.5861 77.5862 79.3102 74.1379 79.3102C73.3523 79.3195 72.5691 79.2209 71.8103 79.0171C71.7269 78.9807 71.6403 78.9518 71.5517 78.9309C70.416 78.6485 69.3861 78.0438 68.5862 77.1895C68.5767 77.1895 68.5689 77.1818 68.5689 77.1723L68.3103 76.862C67.6207 77.1206 66.7931 77.3964 65.862 77.6723H65.8448C65.5862 77.7413 65.3276 77.8275 65.0689 77.8964C61.8482 78.8085 58.5197 79.284 55.1724 79.3102C41.3793 79.3102 34.4827 72.4137 27.5862 72.4137L26.7241 58.4292L27.5862 44.8275C32.746 45.7407 37.8223 42.84 39.6552 37.9309C42.8448 29.9482 47.5172 27.8792 48.1896 15.293C48.3079 13.4766 49.8177 12.065 51.6379 12.0689H51.7241C56.4852 12.0689 60.3448 15.9285 60.3448 20.6895V24.1378C60.3448 27.0861 57.8276 30.0344 58.1724 36.224C59.1552 36.2413 60.3448 36.2585 61.6379 36.3102C67.6379 36.4654 76.1034 36.862 79.3103 37.9309C84.4827 39.6551 84.4827 43.1033 84.4827 44.8275C84.429 45.8135 84.0604 46.7562 83.431 47.5171C82.9629 48.1279 82.3765 48.638 81.7069 49.0171C82.3865 49.818 82.9763 50.6911 83.4655 51.6206Z" fill="#FDD7AD"/>
<path d="M74.1377 22.4139C73.1855 22.4139 72.4136 21.6419 72.4136 20.6897V18.9656C72.4136 18.0134 73.1855 17.2415 74.1377 17.2415C75.0899 17.2415 75.8618 18.0134 75.8618 18.9656V20.6897C75.8618 21.6419 75.0899 22.4139 74.1377 22.4139Z" fill="#F3D55B"/>
<path d="M79.3101 25.8621H77.586C76.6337 25.8621 75.8618 25.0902 75.8618 24.138C75.8618 23.1857 76.6337 22.4138 77.586 22.4138H79.3101C80.2623 22.4138 81.0342 23.1857 81.0342 24.138C81.0342 25.0902 80.2623 25.8621 79.3101 25.8621Z" fill="#F3D55B"/>
<path d="M74.1377 31.0345C73.1855 31.0345 72.4136 30.2626 72.4136 29.3103V27.5862C72.4136 26.634 73.1855 25.8621 74.1377 25.8621C75.0899 25.8621 75.8618 26.634 75.8618 27.5862V29.3103C75.8618 30.2626 75.0899 31.0345 74.1377 31.0345Z" fill="#F3D55B"/>
<path d="M70.6895 25.8621H68.9653C68.0131 25.8621 67.2412 25.0902 67.2412 24.138C67.2412 23.1857 68.0131 22.4138 68.9653 22.4138H70.6895C71.6417 22.4138 72.4136 23.1857 72.4136 24.138C72.4136 25.0902 71.6417 25.8621 70.6895 25.8621Z" fill="#F3D55B"/>
<path d="M29.3101 27.5862C28.3579 27.5862 27.5859 26.8143 27.5859 25.8621V24.138C27.5859 23.1857 28.3579 22.4138 29.3101 22.4138C30.2623 22.4138 31.0342 23.1857 31.0342 24.138V25.8621C31.0342 26.8143 30.2623 27.5862 29.3101 27.5862Z" fill="#F3D55B"/>
<path d="M34.4825 31.0345H32.7583C31.8061 31.0345 31.0342 30.2625 31.0342 29.3103C31.0342 28.3581 31.8061 27.5862 32.7583 27.5862H34.4825C35.4347 27.5862 36.2066 28.3581 36.2066 29.3103C36.2066 30.2625 35.4347 31.0345 34.4825 31.0345Z" fill="#F3D55B"/>
<path d="M29.3101 36.2071C28.3579 36.2071 27.5859 35.4352 27.5859 34.4829V32.7588C27.5859 31.8066 28.3579 31.0347 29.3101 31.0347C30.2623 31.0347 31.0342 31.8066 31.0342 32.7588V34.4829C31.0342 35.4352 30.2623 36.2071 29.3101 36.2071Z" fill="#F3D55B"/>
<path d="M25.8618 31.0345H24.1377C23.1855 31.0345 22.4136 30.2625 22.4136 29.3103C22.4136 28.3581 23.1855 27.5862 24.1377 27.5862H25.8618C26.8141 27.5862 27.586 28.3581 27.586 29.3103C27.586 30.2625 26.8141 31.0345 25.8618 31.0345Z" fill="#F3D55B"/>
<path d="M37.9307 22.4139C38.8829 22.4139 39.6548 21.6419 39.6548 20.6897C39.6548 19.7375 38.8829 18.9656 37.9307 18.9656C36.9785 18.9656 36.2065 19.7375 36.2065 20.6897C36.2065 21.6419 36.9785 22.4139 37.9307 22.4139Z" fill="#F3D55B"/>
<path d="M86.2066 32.7586C87.1588 32.7586 87.9307 31.9867 87.9307 31.0344C87.9307 30.0822 87.1588 29.3103 86.2066 29.3103C85.2543 29.3103 84.4824 30.0822 84.4824 31.0344C84.4824 31.9867 85.2543 32.7586 86.2066 32.7586Z" fill="#F3D55B"/>
<path d="M36.2066 84.483C37.1588 84.483 37.9307 83.711 37.9307 82.7588C37.9307 81.8066 37.1588 81.0347 36.2066 81.0347C35.2543 81.0347 34.4824 81.8066 34.4824 82.7588C34.4824 83.711 35.2543 84.483 36.2066 84.483Z" fill="#F3D55B"/>
<path d="M43.1035 89.6553C44.0558 89.6553 44.8277 88.8834 44.8277 87.9312C44.8277 86.979 44.0558 86.207 43.1035 86.207C42.1513 86.207 41.3794 86.979 41.3794 87.9312C41.3794 88.8834 42.1513 89.6553 43.1035 89.6553Z" fill="#F3D55B"/>
<path d="M17.2412 36.2071C18.1934 36.2071 18.9654 35.4351 18.9654 34.4829C18.9654 33.5307 18.1934 32.7588 17.2412 32.7588C16.289 32.7588 15.5171 33.5307 15.5171 34.4829C15.5171 35.4351 16.289 36.2071 17.2412 36.2071Z" fill="#F3D55B"/>
<path d="M57.8448 53.1552C57.5672 53.3497 57.2355 53.4523 56.8965 53.4483C56.1404 53.4424 55.4763 52.9446 55.2586 52.2204C55.041 51.4963 55.3206 50.7148 55.9482 50.2931C56.1034 50.1724 60.1034 47.2758 58.6551 40C58.4038 38.7836 58.2424 37.5504 58.1724 36.3103V36.2241C59.1551 36.2414 60.3448 36.2586 61.6379 36.3103C61.6941 37.3246 61.8266 38.3332 62.0344 39.3276C63.9655 48.9655 58.1034 53 57.8448 53.1552Z" fill="#CBB292"/>
<path d="M81.7067 49.0173C82.3864 49.8182 82.9761 50.6912 83.4654 51.6208C81.7671 52.8741 79.6956 53.518 77.586 53.4483C71.5861 53.4483 65.5171 51.3104 65.5171 46.5518C65.5171 45.5996 66.289 44.8276 67.2412 44.8276C68.1934 44.8276 68.9654 45.5996 68.9654 46.5518C68.9654 48.4483 72.8274 50.0001 77.586 50.0001C79.0295 50.1233 80.4743 49.7787 81.7067 49.0173Z" fill="#CBB292"/>
<path d="M80.9482 59.8275C81.7911 60.6141 82.3796 61.6349 82.6378 62.7586C80.4732 63.5613 78.1674 63.9133 75.8619 63.7931C67.8619 63.7931 63.793 61.4655 63.793 56.8965C63.793 55.9443 64.5649 55.1724 65.5171 55.1724C66.4693 55.1724 67.2412 55.9443 67.2412 56.8965C67.2412 59.1896 70.1464 60.6431 75.8619 60.3448C80.5792 60.0982 80.1809 60.0258 80.9482 59.8275Z" fill="#CBB292"/>
<path d="M77.879 68.8449C78.9458 69.5273 79.8141 70.4788 80.3962 71.6035C78.9675 72.22 77.4155 72.4974 75.8617 72.4139C70.5514 72.4139 67.8962 72.4139 65.7065 68.0173C65.3594 67.1836 65.7143 66.2234 66.5202 65.8159C67.3261 65.4084 68.3099 65.6918 68.7755 66.4656C69.9824 68.8794 70.6031 68.9656 75.8617 68.9656C76.5363 69.0332 77.2173 68.9924 77.879 68.8449Z" fill="#CBB292"/>
<path d="M24.1378 41.3794H18.9654C17.0609 41.3794 15.5171 42.9232 15.5171 44.8277V72.4139C15.5171 74.3183 17.0609 75.8622 18.9654 75.8622H24.1378C26.0422 75.8622 27.5861 74.3183 27.5861 72.4139V44.8277C27.5861 42.9232 26.0422 41.3794 24.1378 41.3794Z" fill="#B49ACA"/>
</g>
<defs>
<clipPath id="clip0_1881_378">
<rect width="100" height="100" fill="white"/>
</clipPath>
</defs>
</svg>
