<svg width="30" height="30" viewBox="0 0 30 30" fill="none" xmlns="http://www.w3.org/2000/svg">
<g clip-path="url(#clip0_2189_161)">
<path d="M22.1055 3.28765L20.8059 1.53868C18.5245 1.66419 16.4811 2.67153 14.9994 4.22093C13.5177 2.67153 11.4743 1.6639 9.19295 1.53833L7.8457 3.42124V21.8233L9.19295 24.6622C10.7954 25.9407 12.2894 26.953 13.3604 27.6342L22.6209 22.0142L22.1055 3.28765Z" fill="#ECEAEC"/>
<path d="M20.8068 20.6406C18.0758 24.0895 14.8286 26.5903 13.3613 27.634C13.8355 27.9355 14.2317 28.1758 14.5123 28.3411C14.8145 28.5193 15.1862 28.5193 15.4884 28.3411C16.4027 27.8022 18.4907 26.5083 20.8068 24.6603L21.8582 22.3576L20.8068 20.6406Z" fill="#DBD8DB"/>
<path d="M9.19356 1.53849C8.68561 1.51054 8.16624 1.52606 7.63831 1.58929C3.3755 2.09993 0.0731529 5.76995 0.00143414 10.0626C-0.0974135 15.9843 4.93257 21.2625 9.19356 24.6621V1.53849Z" fill="#4285F4"/>
<path d="M27.8139 10.0627C27.7423 5.76998 26.2486 3.00119 22.3619 1.83037C21.8528 1.67703 20.8066 1.53857 20.8066 1.53857V20.6408L21.8199 21.2124C21.8199 21.2124 27.8921 14.7449 27.8139 10.0627Z" fill="#D65140"/>
<path d="M22.3619 1.58951C21.834 1.52628 21.3145 1.51175 20.8066 1.5397C23.5097 2.77796 25.3624 6.1757 25.2459 9.96378C25.1217 14.0077 23.1543 17.6756 20.8066 20.641V24.6606C25.0676 21.2611 30.0976 15.9845 29.9988 10.0629C29.9271 5.77017 26.6247 2.10015 22.3619 1.58951Z" fill="#D65140"/>
</g>
<defs>
<clipPath id="clip0_2189_161">
<rect width="30" height="30" fill="white"/>
</clipPath>
</defs>
</svg>
