<svg width="71" height="71" viewBox="0 0 71 71" fill="none" xmlns="http://www.w3.org/2000/svg">
<circle cx="35.3555" cy="35.3553" r="25" transform="rotate(45 35.3555 35.3553)" fill="white"/>
<path fill-rule="evenodd" clip-rule="evenodd" d="M42.8227 29.0672L29.7805 42.1094C29.2682 42.6218 28.407 42.599 27.8669 42.0589C27.3267 41.5187 27.304 40.6576 27.8164 40.1452L40.8585 27.103C41.3709 26.5906 42.2321 26.6134 42.7722 27.1535C43.3124 27.6937 43.3351 28.5548 42.8227 29.0672Z" fill="#12274C"/>
<path fill-rule="evenodd" clip-rule="evenodd" d="M41.2627 42.4124L27.5135 28.6631C26.9733 28.123 26.9506 27.2618 27.4629 26.7495C27.9753 26.2371 28.8365 26.2598 29.3766 26.8L43.1259 40.5493C43.6661 41.0894 43.6888 41.9506 43.1764 42.4629C42.6641 42.9753 41.8029 42.9526 41.2627 42.4124Z" fill="#12274C"/>
</svg>
