<svg width="35" height="35" viewBox="0 0 35 35" fill="none" xmlns="http://www.w3.org/2000/svg">
<g clip-path="url(#clip0_1351_652)">
<path d="M35 17.4997C35 19.2309 31.8982 20.4507 31.391 22.0129C30.8649 23.6321 32.6392 26.4387 31.6581 27.786C30.6678 29.1473 27.4439 28.3222 26.0826 29.313C24.7348 30.2936 24.529 33.6195 22.9103 34.1436C21.3481 34.6508 19.2333 32.0974 17.5 32.0974C15.7666 32.0974 13.6538 34.6508 12.0896 34.1436C10.4704 33.6175 10.2646 30.2917 8.91684 29.313C7.55605 28.3227 4.3321 29.1478 3.34129 27.7865C2.36069 26.4387 4.13448 23.6321 3.60889 22.0134C3.10177 20.4512 0 19.2314 0 17.5002C0 15.7689 3.10177 14.5491 3.60899 12.9869C4.13458 11.3681 2.36079 8.5615 3.34139 7.21384C4.3322 5.85254 7.55615 6.67764 8.91745 5.68734C10.2647 4.70673 10.4705 1.38028 12.0897 0.856707C13.6519 0.34949 15.7667 2.90294 17.5001 2.90294C19.2333 2.90294 21.3462 0.34949 22.9104 0.856707C24.5292 1.3823 24.7354 4.70865 26.0827 5.68734C27.444 6.67814 30.6679 5.85304 31.6587 7.21384C32.6393 8.5616 30.865 11.3682 31.3911 12.9869C31.8982 14.5485 35 15.7683 35 17.4997Z" fill="#12274C"/>
<path d="M15.9708 23.4494C15.4583 23.4501 14.9666 23.2465 14.6046 22.8837L10.2966 18.5758C9.54193 17.8213 9.54173 16.5978 10.2961 15.8431C11.0507 15.0884 12.2741 15.0882 13.0288 15.8426L15.9707 18.784L21.9727 12.7824C22.7274 12.0277 23.9509 12.0276 24.7056 12.7822C25.4604 13.5368 25.4605 14.7604 24.7058 15.5151L17.3372 22.8837C16.9752 23.2467 16.4833 23.4502 15.9708 23.4494Z" fill="#F3F7FC"/>
<g clip-path="url(#clip1_1351_652)">
<path d="M35 17.4997C35 19.2309 31.8982 20.4507 31.391 22.0129C30.8649 23.6321 32.6392 26.4387 31.6581 27.786C30.6678 29.1473 27.4439 28.3222 26.0826 29.313C24.7348 30.2936 24.529 33.6195 22.9103 34.1436C21.3481 34.6508 19.2333 32.0974 17.5 32.0974C15.7666 32.0974 13.6538 34.6508 12.0896 34.1436C10.4704 33.6175 10.2646 30.2917 8.91684 29.313C7.55605 28.3227 4.3321 29.1478 3.34129 27.7865C2.36069 26.4387 4.13448 23.6321 3.60889 22.0134C3.10177 20.4512 0 19.2314 0 17.5002C0 15.7689 3.10177 14.5491 3.60899 12.9869C4.13458 11.3681 2.36079 8.5615 3.34139 7.21384C4.3322 5.85254 7.55615 6.67764 8.91745 5.68734C10.2647 4.70673 10.4705 1.38028 12.0897 0.856707C13.6519 0.34949 15.7667 2.90294 17.5001 2.90294C19.2333 2.90294 21.3462 0.34949 22.9104 0.856707C24.5292 1.3823 24.7354 4.70865 26.0827 5.68734C27.444 6.67814 30.6679 5.85304 31.6587 7.21384C32.6393 8.5616 30.865 11.3682 31.3911 12.9869C31.8982 14.5485 35 15.7683 35 17.4997Z" fill="#12274C"/>
<path d="M15.9708 23.4494C15.4583 23.4501 14.9666 23.2465 14.6046 22.8837L10.2966 18.5758C9.54193 17.8213 9.54173 16.5978 10.2961 15.8431C11.0507 15.0884 12.2741 15.0882 13.0288 15.8426L15.9707 18.784L21.9727 12.7824C22.7274 12.0277 23.9509 12.0276 24.7056 12.7822C25.4604 13.5368 25.4605 14.7604 24.7058 15.5151L17.3372 22.8837C16.9752 23.2467 16.4833 23.4502 15.9708 23.4494Z" fill="#F3F7FC"/>
<path d="M35 17.4995C35 19.3126 31.8982 20.59 31.391 22.2261C30.8649 23.9218 32.6392 26.8611 31.6581 28.272C30.6678 29.6977 27.4438 28.8336 26.0826 29.8712C24.7348 30.8982 24.529 34.3813 22.9103 34.9302C21.3481 35.4614 19.2333 32.7872 17.4999 32.7872C15.7666 32.7872 13.6538 35.4614 12.0896 34.9302C10.4704 34.3792 10.2646 30.8962 8.91684 29.8712C7.55605 28.8341 4.3321 29.6982 3.34129 28.2726C2.36069 26.8611 4.13448 23.9218 3.60889 22.2266C3.10177 20.5905 0 19.3131 0 17.5C0 15.6869 3.10177 14.4095 3.60899 12.7734C4.13458 11.0781 2.36079 8.13882 3.34139 6.72745C4.3322 5.3018 7.55615 6.1659 8.91745 5.12879C10.2647 4.10183 10.4705 0.618144 12.0897 0.0698193C13.6519 -0.461374 15.7667 2.21278 17.5001 2.21278C19.2333 2.21278 21.3462 -0.461374 22.9104 0.0698193C24.5292 0.620259 24.7354 4.10384 26.0827 5.12879C27.444 6.16643 30.6679 5.30233 31.6587 6.72745C32.6393 8.13892 30.865 11.0782 31.3911 12.7734C31.8982 14.4089 35 15.6862 35 17.4995Z" fill="#D65140"/>
<path d="M25.1885 22.9807C25.8273 23.65 25.8273 24.7313 25.1885 25.4006C24.8698 25.7343 24.4516 25.902 24.033 25.902C23.6147 25.902 23.1964 25.7343 22.8778 25.4006L17.9676 20.258L13.0574 25.4006C12.7387 25.7343 12.3205 25.902 11.9022 25.902C11.4836 25.902 11.0653 25.7343 10.7467 25.4006C10.1079 24.7313 10.1079 23.65 10.7467 22.9807L15.6572 17.8384L10.7467 12.6961C10.1079 12.0268 10.1079 10.9455 10.7467 10.2762C11.3858 9.60717 12.4183 9.60717 13.0574 10.2762L17.9676 15.4188L22.8778 10.2762C23.5168 9.60717 24.5494 9.60717 25.1885 10.2762C25.8273 10.9455 25.8273 12.0268 25.1885 12.6961L20.278 17.8384L25.1885 22.9807Z" fill="white" stroke="white"/>
</g>
</g>
<defs>
<clipPath id="clip0_1351_652">
<rect width="35" height="35" fill="white"/>
</clipPath>
<clipPath id="clip1_1351_652">
<rect width="35" height="35" fill="white"/>
</clipPath>
</defs>
</svg>
