<svg width="35" height="35" viewBox="0 0 35 35" fill="none" xmlns="http://www.w3.org/2000/svg">
<path d="M35 17.4997C35 19.2309 31.8982 20.4507 31.391 22.0129C30.8649 23.6321 32.6392 26.4387 31.6581 27.786C30.6678 29.1473 27.4439 28.3222 26.0826 29.313C24.7348 30.2936 24.529 33.6195 22.9103 34.1436C21.3481 34.6508 19.2333 32.0974 17.5 32.0974C15.7666 32.0974 13.6538 34.6508 12.0896 34.1436C10.4704 33.6175 10.2646 30.2917 8.91684 29.313C7.55605 28.3227 4.3321 29.1478 3.34129 27.7865C2.36069 26.4387 4.13448 23.6321 3.60889 22.0134C3.10177 20.4512 0 19.2314 0 17.5002C0 15.7689 3.10177 14.5491 3.60899 12.9869C4.13458 11.3681 2.36079 8.5615 3.34139 7.21384C4.3322 5.85254 7.55615 6.67764 8.91745 5.68734C10.2647 4.70673 10.4705 1.38028 12.0897 0.856707C13.6519 0.34949 15.7667 2.90294 17.5001 2.90294C19.2333 2.90294 21.3462 0.34949 22.9104 0.856707C24.5292 1.3823 24.7354 4.70865 26.0827 5.68734C27.444 6.67814 30.6679 5.85304 31.6587 7.21384C32.6393 8.5616 30.865 11.3682 31.3911 12.9869C31.8982 14.5485 35 15.7683 35 17.4997Z" fill="#12274C"/>
<path d="M15.9708 23.4494C15.4583 23.4501 14.9666 23.2465 14.6046 22.8837L10.2966 18.5758C9.54193 17.8213 9.54173 16.5978 10.2961 15.8431C11.0507 15.0884 12.2741 15.0882 13.0288 15.8426L15.9707 18.784L21.9727 12.7824C22.7274 12.0277 23.9509 12.0276 24.7056 12.7822C25.4604 13.5368 25.4605 14.7604 24.7058 15.5151L17.3372 22.8837C16.9752 23.2467 16.4833 23.4502 15.9708 23.4494Z" fill="#F3F7FC"/>
</svg>
