<svg width="40" height="40" viewBox="0 0 40 40" fill="none" xmlns="http://www.w3.org/2000/svg">
<path d="M36.9723 5.98139C31.1517 5.98139 23.4933 4.01728 20.7635 0.378376C20.4004 -0.0638227 19.7476 -0.127604 19.3054 0.235554C19.2532 0.278279 19.2053 0.326191 19.1626 0.378376C16.4325 4.01698 8.77409 5.98139 2.95379 5.98139C2.40112 5.98139 1.95312 6.42939 1.95312 6.98206V19.9889C1.95312 30.9911 11.5072 37.6238 19.6884 39.9608C19.8678 40.013 20.0582 40.013 20.2377 39.9608C28.4188 37.6238 37.9729 30.9911 37.9729 19.9889V6.98206C37.9729 6.42939 37.5249 5.98139 36.9723 5.98139ZM35.9716 19.9889C35.9716 29.7561 27.4124 35.7436 19.963 37.9579C12.5137 35.7436 3.95416 29.7561 3.95416 19.9889V7.96503C9.73753 7.76941 16.5765 5.9051 19.963 2.49904C23.3499 5.9051 30.1885 7.76941 35.9719 7.96472V19.9889H35.9716Z" fill="#284C88"/>
<path d="M15.9608 15.9869V17.988H14.9601C14.4075 17.988 13.9595 18.436 13.9595 18.9886V26.9928C13.9595 27.5455 14.4075 27.9935 14.9601 27.9935H24.9657C25.5183 27.9935 25.9663 27.5455 25.9663 26.9928V18.9886C25.9663 18.436 25.5183 17.988 24.9657 17.988H23.965V15.9869C23.965 13.7766 22.1733 11.9849 19.9629 11.9849C17.7525 11.9849 15.9608 13.7766 15.9608 15.9869ZM23.965 25.9924H15.9608V19.989H23.965V25.9924ZM21.9639 15.9869V17.988H17.9619V15.9869C17.9619 14.8819 18.8576 13.9859 19.9629 13.9859C21.0679 13.9859 21.9639 14.8819 21.9639 15.9869Z" fill="#284C88"/>
</svg>
