<svg width="90" height="90" viewBox="0 0 90 90" fill="none" xmlns="http://www.w3.org/2000/svg">
<g clip-path="url(#clip0_1391_341)">
<path d="M62.6316 0.0969857C55.514 -0.591901 49.0746 2.44331 45.0074 7.47523H45.0044L44.9958 7.55661V7.47523H44.9928C40.9254 2.44331 34.486 -0.591901 27.3683 0.0969857C26.5164 0.179427 25.6822 0.316361 24.8681 0.503919C15.4842 2.66673 11.6016 15.8203 11.6016 21.4198C11.6016 42.0697 36.5846 58.7485 43.7695 63.3691C44.3389 63.7352 44.3489 65.0571 44.9958 65.0571V64.9958L45.0044 65.0571C45.6511 65.0571 46.2978 64.874 46.8671 64.5078C54.052 59.8872 79.6162 42.0417 80.6868 21.4196C81.2426 10.7138 73.3022 1.12952 62.6316 0.0969857Z" fill="#34A853"/>
<path d="M13.9209 19.7265C13.498 11.5822 17.9953 4.079 24.8677 0.503784C15.4859 2.66835 8.80127 11.5697 9.31261 21.4196C10.3833 42.0419 35.9473 59.8873 43.1322 64.5078C43.7016 64.874 44.3483 65.0572 44.995 65.0572V64.9958L45.0036 65.0572C45.6503 65.0572 46.297 64.874 46.8663 64.5078C47.2652 64.2514 47.7291 63.9475 48.2341 63.6112C39.4709 57.7309 14.9325 39.2127 13.9209 19.7265Z" fill="#65C07D" fill-opacity="0.61"/>
<path d="M66.4286 34.2858H63.5715V31.4286C63.5715 30.639 62.9325 30 62.1429 30C61.3533 30 60.7143 30.639 60.7143 31.4286V35.1228L47.8577 47.9795V34.6317C47.8577 33.8739 48.1588 33.1472 48.6946 32.6113L54.5817 26.7242C55.1398 26.1661 55.1398 25.2622 54.5817 24.7041C54.0236 24.146 53.1197 24.146 52.5616 24.7041L46.0088 31.2555C45.7402 31.5262 45.3713 31.6608 45.0016 31.6605L43.6525 34.6326V80L42.5391 87.7734L49.336 88.8866L55 87.1427H55.0004C51.0555 87.1427 47.8575 83.9447 47.8575 79.9998V53.2032C47.8575 52.4454 48.1584 51.7187 48.6944 51.1829L62.7344 37.1429H66.4286C67.2182 37.1429 67.8572 36.5039 67.8572 35.7143C67.8572 34.9247 67.2182 34.2858 66.4286 34.2858Z" fill="#AF6E5A"/>
<path d="M54.9996 87.1428H47.8567C46.2787 87.1428 44.9996 85.8636 44.9996 84.2856V31.6602C44.6303 31.6595 44.2606 31.5245 43.9895 31.2556L37.4382 24.7042C36.8801 24.1461 35.9762 24.1461 35.4181 24.7042C34.86 25.2623 34.86 26.1662 35.4181 26.7243L41.3061 32.6123C41.8419 33.1481 42.143 33.8749 42.143 34.6327V47.9805L29.2854 35.123V31.4287C29.2854 30.6391 28.6465 30.0002 27.8569 30.0002C27.0673 30.0002 26.4283 30.6391 26.4283 31.4287V34.2859H23.5712C22.7815 34.2859 22.1426 34.9248 22.1426 35.7145C22.1426 36.5041 22.7815 37.143 23.5712 37.143H27.2654L41.3062 51.1839C41.842 51.7197 42.1431 52.4464 42.1431 53.2042V80.0003C42.1431 83.9451 38.9452 87.1431 35.0003 87.1431H34.9999C34.2108 87.1431 33.5713 87.7826 33.5713 88.5717C33.5713 89.3606 34.2108 90.0003 34.9999 90.0003H55C55.789 90.0003 56.4285 89.3606 56.4285 88.5717C56.4282 87.7823 55.7885 87.1428 54.9996 87.1428Z" fill="#AF6E5A"/>
</g>
<defs>
<clipPath id="clip0_1391_341">
<rect width="90" height="90" fill="white"/>
</clipPath>
</defs>
</svg>
