<svg width="40" height="40" viewBox="0 0 40 40" fill="none" xmlns="http://www.w3.org/2000/svg">
<path fill-rule="evenodd" clip-rule="evenodd" d="M36.2049 15.6054C36.2049 15.6054 36.2049 11.5128 36.2049 8.73904C36.2049 7.91129 35.8762 7.11736 35.2908 6.53208C34.7055 5.9468 33.9117 5.61792 33.0838 5.61792C27.0376 5.61792 11.6644 5.61792 5.61819 5.61792C4.79044 5.61792 3.99651 5.9468 3.41123 6.53208C2.82595 7.11736 2.49707 7.91129 2.49707 8.73904V26.8414C2.49707 27.6692 2.82595 28.463 3.41123 29.0484C3.99651 29.6337 4.79044 29.9625 5.61819 29.9625H26.8417C27.1862 29.9625 27.4658 29.6828 27.4658 29.3383C27.4658 28.9938 27.1862 28.7141 26.8417 28.7141C26.8417 28.7141 11.7104 28.7141 5.61819 28.7141C5.12156 28.7141 4.64516 28.5168 4.29404 28.1656C3.9428 27.8143 3.7455 27.338 3.7455 26.8414C3.7455 22.4006 3.7455 13.1798 3.7455 8.73904C3.7455 8.24241 3.9428 7.76601 4.29404 7.41489C4.64516 7.06365 5.12156 6.86635 5.61819 6.86635H33.0838C33.5806 6.86635 34.0568 7.06365 34.4081 7.41489C34.7592 7.76601 34.9565 8.24241 34.9565 8.73904V15.6054C34.9565 15.9499 35.2362 16.2296 35.5808 16.2296C35.9253 16.2296 36.2049 15.9499 36.2049 15.6054Z" fill="#284C88"/>
<path fill-rule="evenodd" clip-rule="evenodd" d="M3.12134 26.2172H26.8417C27.1862 26.2172 27.4658 25.9375 27.4658 25.593C27.4658 25.2485 27.1862 24.9688 26.8417 24.9688H3.12134C2.77685 24.9688 2.49707 25.2485 2.49707 25.593C2.49707 25.9375 2.77685 26.2172 3.12134 26.2172Z" fill="#284C88"/>
<path fill-rule="evenodd" clip-rule="evenodd" d="M21.8082 29.1191C21.7168 28.8755 21.4839 28.7141 21.2237 28.7141H17.4784C17.2182 28.7141 16.9852 28.8755 16.8939 29.1191L15.0212 34.1129C14.9493 34.3046 14.976 34.5193 15.0927 34.6876C15.2092 34.8559 15.401 34.9562 15.6057 34.9562H23.0964C23.3011 34.9562 23.4928 34.8559 23.6094 34.6876C23.726 34.5193 23.7527 34.3046 23.6807 34.1129L21.8082 29.1191ZM20.7911 29.9625L22.1956 33.7078H16.5065L17.911 29.9625H20.7911Z" fill="#284C88"/>
<path fill-rule="evenodd" clip-rule="evenodd" d="M13.733 34.9562H24.969C25.3135 34.9562 25.5933 34.6765 25.5933 34.332C25.5933 33.9874 25.3135 33.7078 24.969 33.7078H13.733C13.3885 33.7078 13.1089 33.9874 13.1089 34.332C13.1089 34.6765 13.3885 34.9562 13.733 34.9562Z" fill="#284C88"/>
<path fill-rule="evenodd" clip-rule="evenodd" d="M37.4532 17.4781C37.4532 16.0992 36.3354 14.9812 34.9564 14.9812H28.7141C27.3353 14.9812 26.2173 16.0992 26.2173 17.4781V31.211C26.2173 32.59 27.3353 33.7078 28.7141 33.7078H34.9564C36.3354 33.7078 37.4532 32.59 37.4532 31.211V17.4781ZM36.2048 17.4781V31.211C36.2048 31.9004 35.6459 32.4594 34.9564 32.4594H28.7143C28.0247 32.4594 27.4658 31.9004 27.4657 31.211V17.4781C27.4658 16.7886 28.0247 16.2297 28.7141 16.2296H34.9564C35.6459 16.2297 36.2048 16.7886 36.2048 17.4781Z" fill="#284C88"/>
<path fill-rule="evenodd" clip-rule="evenodd" d="M30.8992 31.2111H32.7719C33.1164 31.2111 33.396 30.9313 33.396 30.5868C33.396 30.2423 33.1164 29.9626 32.7719 29.9626H30.8992C30.5547 29.9626 30.2749 30.2423 30.2749 30.5868C30.2749 30.9313 30.5547 31.2111 30.8992 31.2111Z" fill="#284C88"/>
</svg>
