<svg width="30" height="30" viewBox="0 0 30 30" fill="none" xmlns="http://www.w3.org/2000/svg">
<path d="M29.6275 15.7725C29.6275 15.771 29.6276 15.7695 29.6277 15.768C30.0616 7.37232 23.3909 0.351562 14.9993 0.351562C6.71936 0.351562 -0.0553035 7.24236 0.371142 15.7715C0.779247 23.6885 7.45014 29.8764 15.4204 29.642C23.0723 29.4266 29.2358 23.3602 29.6275 15.7725ZM12.6556 28.2721V22.2499C14.1782 22.7432 15.8503 22.7338 17.343 22.2499V28.2721C15.852 28.5349 14.2466 28.5525 12.6556 28.2721ZM8.56055 14.7176C8.71096 11.0897 11.8805 8.28609 15.4953 8.57361C18.9094 8.83465 21.6117 11.7741 21.4361 15.3342C21.2559 18.866 18.1958 21.7034 14.5034 21.4264C11.0943 21.1658 8.40844 18.2369 8.56055 14.7176ZM12.6556 7.75014V1.72793C14.2145 1.45324 15.8266 1.46057 17.343 1.72793V7.75014C15.7947 7.24828 14.1206 7.27535 12.6556 7.75014ZM18.5149 28.0105V21.7558C19.8979 21.0332 21.0325 19.8986 21.7551 18.5156H28.0097C26.7627 23.1259 23.1252 26.7634 18.5149 28.0105ZM22.2492 12.6563H28.2714C28.5443 14.2067 28.5418 15.8106 28.2714 17.3438H22.2492C22.7418 15.8246 22.7346 14.1536 22.2492 12.6563ZM28.0097 11.4844H21.7551C21.0325 10.1015 19.8979 8.9669 18.5149 8.24432V1.98961C23.1252 3.23666 26.7627 6.87416 28.0097 11.4844ZM11.4837 1.98961V8.24432C10.1008 8.9669 8.96614 10.1016 8.24356 11.4844H1.98886C3.23596 6.87416 6.87346 3.23666 11.4837 1.98961ZM7.74938 17.3438H1.72718C1.46427 15.852 1.4471 14.2463 1.72718 12.6563H7.74938C7.25954 14.1681 7.26129 15.8373 7.74938 17.3438ZM1.98886 18.5156H8.24356C8.96614 19.8986 10.1008 21.0332 11.4837 21.7558V28.0105C6.87346 26.7634 3.23596 23.1259 1.98886 18.5156Z" fill="#D9D9D9"/>
</svg>
