<svg width="30" height="30" viewBox="0 0 30 30" fill="none" xmlns="http://www.w3.org/2000/svg">
<path d="M12.061 4.30121C9.44013 1.68168 4.3114 1.37793 0.681127 1.37793C0.305157 1.37793 0 1.68302 0 2.05899C0 5.68926 0.302411 10.818 2.92329 13.4389C4.02942 14.5451 5.72538 15.0395 7.40633 15.0395C9.23305 15.0395 11.0434 14.4552 12.061 13.4376C14.0131 11.4855 14.3714 6.61016 12.061 4.30121ZM11.098 12.4758C9.64038 13.932 5.59326 14.1813 3.8878 12.4758C1.77226 10.3604 1.4058 6.06255 1.36628 2.74421C4.68463 2.78373 8.98243 3.15012 11.0979 5.26566C12.8034 6.97113 12.5541 11.0196 11.098 12.4758Z" fill="#D9D9D9"/>
<path d="M29.319 4.07227C25.6887 4.07227 20.56 4.37468 17.9391 6.99555C15.6288 9.3045 15.987 14.1799 17.9391 16.1319C18.9567 17.1482 20.7657 17.7326 22.5924 17.7326C24.2734 17.7326 25.968 17.2394 27.0768 16.1333C29.6963 13.5125 30.0001 8.38373 30.0001 4.75339C30.0001 4.37742 29.695 4.07227 29.319 4.07227ZM26.111 15.1688C24.4055 16.8743 20.357 16.625 18.9009 15.1688C17.4447 13.7126 17.1954 9.66413 18.9009 7.95866C21.0164 5.84312 25.3141 5.47673 28.6325 5.4372C28.593 8.75689 28.2265 13.0547 26.111 15.1688Z" fill="#D9D9D9"/>
<path d="M24.3997 9.9679C24.239 9.62596 23.7785 9.50886 23.4393 9.66683C18.2153 12.1229 15.6489 16.4057 14.4828 20.8084C13.0402 11.4472 8.86773 8.59338 7.09822 7.3824C6.87754 7.23119 6.7059 7.12085 6.61057 7.02686C6.34494 6.76123 5.9131 6.76123 5.64747 7.02686C5.38183 7.29249 5.38183 7.72433 5.64747 7.98997C5.78232 8.12348 6.01526 8.29104 6.32993 8.50622C8.32421 9.86982 13.6218 13.4947 13.6218 27.9409C13.6218 28.3169 13.927 28.6221 14.303 28.6221C14.6789 28.6221 14.9841 28.3169 14.9841 27.9423C14.9841 22.1053 16.552 14.4101 24.0196 10.9011C24.0196 10.8997 24.13 10.8479 24.13 10.8479C24.4692 10.6871 24.5604 10.3084 24.3997 9.9679Z" fill="#D9D9D9"/>
</svg>
