<svg width="37" height="37" viewBox="0 0 37 37" fill="none" xmlns="http://www.w3.org/2000/svg">
<path d="M18.4998 7.7085C10.4246 7.7085 3.854 14.2791 3.854 22.3543V25.4377C3.854 27.5636 5.58375 29.2918 7.70817 29.2918H29.2915C31.4159 29.2918 33.1457 27.5636 33.1457 25.4377V22.3543C33.1457 14.2791 26.5751 7.7085 18.4998 7.7085ZM31.604 25.4377C31.604 26.7126 30.5664 27.7502 29.2915 27.7502H7.70817C6.43321 27.7502 5.39567 26.7126 5.39567 25.4377V23.1252H7.70817C8.13367 23.1252 8.479 22.7798 8.479 22.3543C8.479 21.9288 8.13367 21.5835 7.70817 21.5835H5.43421C5.6115 18.551 6.81863 15.7992 8.71796 13.664L10.2457 15.1902C10.3968 15.3413 10.5942 15.4168 10.7915 15.4168C10.9888 15.4168 11.1862 15.3413 11.3372 15.1918C11.6379 14.8911 11.6379 14.4024 11.3372 14.1018L9.80946 12.5755C11.9447 10.6762 14.6965 9.46754 17.729 9.29025V11.5627C17.729 11.9882 18.0743 12.3335 18.4998 12.3335C18.9253 12.3335 19.2707 11.9882 19.2707 11.5627V9.28871C22.3031 9.466 25.055 10.6731 27.1902 12.574L25.6624 14.1003C25.3618 14.4009 25.3618 14.8896 25.6624 15.1902C25.8135 15.3413 26.0108 15.4168 26.2082 15.4168C26.4055 15.4168 26.6028 15.3413 26.7539 15.1918L28.2817 13.6655C30.3414 15.9811 31.6055 19.0197 31.6055 22.3559V25.4377H31.604Z" fill="#D9D9D9"/>
<path d="M27.6233 20.0525L22.0871 20.9759C21.5306 19.5314 20.1369 18.5 18.4997 18.5C16.3753 18.5 14.6455 20.2282 14.6455 22.3542C14.6455 24.4801 16.3753 26.2083 18.4997 26.2083C20.5763 26.2083 22.2629 24.5557 22.34 22.496L27.8761 21.5725C28.2954 21.5032 28.5806 21.1054 28.5097 20.6861C28.4403 20.2652 28.041 19.9815 27.6233 20.0525ZM18.4997 24.6667C17.2247 24.6667 16.1872 23.6291 16.1872 22.3542C16.1872 21.0792 17.2247 20.0417 18.4997 20.0417C19.6451 20.0417 20.5917 20.8803 20.7736 21.9749C20.7952 22.0998 20.8122 22.2247 20.8122 22.3542C20.8122 23.6291 19.7746 24.6667 18.4997 24.6667Z" fill="#D9D9D9"/>
</svg>
