<svg width="30" height="30" viewBox="0 0 30 30" fill="none" xmlns="http://www.w3.org/2000/svg">
<path d="M27.7292 4.48604C23.3638 4.48604 17.62 3.01296 15.5726 0.283782C15.3003 -0.047867 14.8107 -0.0957032 14.479 0.176666C14.4399 0.208709 14.404 0.244643 14.3719 0.283782C12.3243 3.01273 6.58057 4.48604 2.21535 4.48604C1.80084 4.48604 1.46484 4.82204 1.46484 5.23655V14.9917C1.46484 23.2433 8.63043 28.2178 14.7663 29.9706C14.9009 30.0097 15.0437 30.0097 15.1783 29.9706C21.3141 28.2178 28.4797 23.2433 28.4797 14.9917V5.23655C28.4797 4.82204 28.1437 4.48604 27.7292 4.48604ZM26.9787 14.9917C26.9787 22.317 20.5593 26.8077 14.9723 28.4685C9.38528 26.8077 2.96562 22.317 2.96562 14.9917V5.97377C7.30315 5.82706 12.4324 4.42882 14.9723 1.87428C17.5124 4.42882 22.6414 5.82706 26.9789 5.97354V14.9917H26.9787Z" fill="#D9D9D9"/>
<path d="M11.9707 11.9903V13.4911H11.2202C10.8057 13.4911 10.4697 13.8271 10.4697 14.2416V20.2447C10.4697 20.6592 10.8057 20.9952 11.2202 20.9952H18.7244C19.1389 20.9952 19.4749 20.6592 19.4749 20.2447V14.2416C19.4749 13.8271 19.1389 13.4911 18.7244 13.4911H17.9739V11.9903C17.9739 10.3325 16.6301 8.98877 14.9723 8.98877C13.3145 8.98877 11.9707 10.3325 11.9707 11.9903ZM17.9739 19.4944H11.9707V14.9919H17.9739V19.4944ZM16.4731 11.9903V13.4911H13.4715V11.9903C13.4715 11.1615 14.1433 10.4895 14.9723 10.4895C15.8011 10.4895 16.4731 11.1615 16.4731 11.9903Z" fill="#D9D9D9"/>
</svg>
