<svg width="27" height="27" viewBox="0 0 27 27" fill="none" xmlns="http://www.w3.org/2000/svg">
<path d="M21.9377 8.73145V10.9686C21.9377 14.2255 19.2884 16.8749 16.0315 16.8749H5.98242C6.38489 19.2682 8.46136 21.0936 10.969 21.0936H22.7815L25.3127 23.6249V13.4999C25.3127 11.2964 23.9028 9.42712 21.9377 8.73145Z" fill="white"/>
<path d="M7.66992 16.875H5.98242C6.38489 19.2683 8.46136 21.0938 10.969 21.0938H12.6565C10.1489 21.0938 8.07239 19.2683 7.66992 16.875Z" fill="white"/>
<path d="M6.75 3.375C3.95423 3.375 1.6875 5.64173 1.6875 8.4375V18.5625L4.21875 16.0312H16.0312C18.827 16.0312 21.0938 13.7645 21.0938 10.9688V8.4375C21.0938 5.64173 18.827 3.375 16.0312 3.375H6.75Z" fill="#4285F4"/>
<path d="M3.375 8.4375C3.375 5.64173 5.64173 3.375 8.4375 3.375H6.75C3.95423 3.375 1.6875 5.64173 1.6875 8.4375V18.5625L3.375 16.875V8.4375Z" fill="#4285F4"/>
<path d="M9.28125 10.9688C8.81508 10.9688 8.4375 10.5912 8.4375 10.125C8.4375 9.65883 8.81508 9.28125 9.28125 9.28125C9.74742 9.28125 10.125 9.65883 10.125 10.125C10.125 10.5912 9.74742 10.9688 9.28125 10.9688Z" fill="#F0F0F0"/>
<path d="M11.8125 10.9688C11.3463 10.9688 10.9688 10.5912 10.9688 10.125C10.9688 9.65883 11.3463 9.28125 11.8125 9.28125C12.2787 9.28125 12.6562 9.65883 12.6562 10.125C12.6562 10.5912 12.2787 10.9688 11.8125 10.9688Z" fill="#F0F0F0"/>
<path d="M14.3438 10.9688C13.8776 10.9688 13.5 10.5912 13.5 10.125C13.5 9.65883 13.8776 9.28125 14.3438 9.28125C14.8099 9.28125 15.1875 9.65883 15.1875 10.125C15.1875 10.5912 14.8099 10.9688 14.3438 10.9688Z" fill="#F0F0F0"/>
</svg>
