<svg width="30" height="30" viewBox="0 0 30 30" fill="none" xmlns="http://www.w3.org/2000/svg">
<g clip-path="url(#clip0_1283_696)">
<path d="M0.268555 29.9964L7.17629 8.66113L20.8195 22.7978L0.268555 29.9964Z" fill="#FFEA84"/>
<path d="M0.268555 29.9965L20.8195 22.7978L13.992 15.7234L0.268555 29.9965Z" fill="#FFDC40"/>
<path d="M19.5404 23.0209C18.7978 23.0209 17.9529 22.8346 17.0331 22.4602C15.1915 21.7108 13.1926 20.2739 11.4047 18.4143C9.6168 16.5547 8.23529 14.4758 7.51463 12.5604C6.70534 10.4096 6.81019 8.65251 7.80978 7.61294C8.80931 6.57331 10.4987 6.46433 12.5667 7.30597C14.4084 8.05544 16.4072 9.49234 18.1952 11.3519C19.9832 13.2115 21.3646 15.2904 22.0853 17.2058C22.8946 19.3567 22.7897 21.1137 21.7902 22.1533C21.2352 22.7305 20.4675 23.0209 19.5404 23.0209Z" fill="#FFDC40"/>
<path d="M18.1948 11.3519L11.4043 18.4144C13.1922 20.2739 15.1911 21.7107 17.0327 22.4603C17.9525 22.8346 18.7973 23.0209 19.54 23.0209C20.467 23.0209 21.2348 22.7306 21.7897 22.1534C22.7892 21.1138 22.8941 19.3568 22.0848 17.2059C21.3642 15.2904 19.9827 13.2114 18.1948 11.3519Z" fill="#FFAB15"/>
<path d="M10.0615 8.50708C9.59746 8.50708 9.2338 8.62409 9.00761 8.85935C8.52778 9.35839 8.55945 10.5019 9.09228 11.9182C9.72963 13.6122 10.9763 15.4766 12.6025 17.1681C14.2289 18.8595 16.0215 20.156 17.6503 20.8189C19.0121 21.3731 20.1114 21.406 20.5913 20.9069C21.0711 20.4079 21.0394 19.2644 20.5066 17.8481C19.8693 16.1541 18.6226 14.2897 16.9963 12.5982C15.37 10.9068 13.5775 9.61022 11.9486 8.94741C11.2287 8.65438 10.582 8.50708 10.0615 8.50708Z" fill="#FFAB15"/>
<path d="M20.5067 17.848C19.8693 16.154 18.6226 14.2896 16.9964 12.5981L12.6025 17.1679C14.2289 18.8594 16.0215 20.1559 17.6502 20.8187C19.0121 21.373 20.1114 21.4059 20.5913 20.9068C21.0712 20.4079 21.0396 19.2644 20.5067 17.848Z" fill="#FF9400"/>
<path d="M15.4727 15.4302L14.2744 14.1839C15.3635 13.0511 16.4646 13.0142 17.3495 12.9845C18.1135 12.9588 18.6657 12.9403 19.2809 12.3004C19.8961 11.6606 19.9138 11.0864 19.9385 10.2918C19.967 9.37157 20.0026 8.2263 21.0916 7.09362C22.1806 5.96095 23.2817 5.92397 24.1666 5.89433C24.9306 5.86872 25.4827 5.85021 26.0979 5.21042C26.7131 4.57058 26.7309 3.99642 26.7555 3.20177C26.784 2.28155 26.8195 1.13634 27.9086 0.00366211L29.1069 1.24995C28.4917 1.88974 28.4739 2.46395 28.4493 3.25854C28.4208 4.17876 28.3852 5.32403 27.2962 6.45671C26.2072 7.58939 25.106 7.62636 24.2212 7.65601C23.4572 7.68161 22.9051 7.70013 22.2899 8.33991C21.6747 8.97976 21.657 9.55392 21.6323 10.3486C21.6038 11.2688 21.5682 12.4141 20.4792 13.5467C19.3901 14.6795 18.289 14.7164 17.4041 14.7461C16.64 14.7717 16.088 14.7902 15.4727 15.4302Z" fill="#063E8B"/>
<path d="M12.6492 12.0046C12.437 11.2407 12.2836 10.6889 12.6791 9.88288C13.0744 9.07692 13.5941 8.88221 14.3132 8.61268C15.1461 8.30061 16.1826 7.91219 16.8825 6.48538C17.5825 5.05862 17.2767 3.95776 17.0309 3.07323C16.8186 2.30946 16.6652 1.75756 17.0606 0.951606L15.5511 0.150513C14.8511 1.57733 15.157 2.67813 15.4028 3.56266C15.6151 4.32643 15.7684 4.87833 15.373 5.68428C14.9777 6.49024 14.458 6.68495 13.7388 6.95448C12.906 7.26655 11.8695 7.65497 11.1695 9.08178C10.4695 10.5087 10.7754 11.6095 11.0212 12.4939C11.2334 13.2578 11.3868 13.8096 10.9914 14.6156C10.9251 14.7507 10.8539 14.87 10.7772 14.9781C11.1099 15.4441 11.4751 15.9082 11.8693 16.364C12.1138 16.0929 12.3233 15.7787 12.5009 15.4167C13.2008 13.9898 12.8949 12.889 12.6492 12.0046Z" fill="#86D6F2"/>
<path d="M21.4028 18.9802C22.096 19.5528 22.9593 20.2655 24.4937 20.1343C26.0287 20.0031 26.768 19.1536 27.3621 18.471C27.875 17.8816 28.2457 17.4556 29.1128 17.3816L28.974 15.625C27.4391 15.7561 26.6997 16.6056 26.1057 17.2882C25.5927 17.8777 25.222 18.3036 24.3549 18.3777C23.4879 18.4517 23.0553 18.0945 22.4567 17.6C21.7635 17.0274 20.901 16.3146 19.3658 16.446C17.8308 16.5771 17.0914 17.4266 16.4974 18.1092C16.0083 18.6713 15.6474 19.0838 14.8633 19.1852C15.462 19.6367 16.0628 20.0264 16.6517 20.3444C17.1131 20.0276 17.4523 19.6384 17.7538 19.292C18.2668 18.7025 18.6375 18.2766 19.5046 18.2025C20.3718 18.1284 20.8042 18.4857 21.4028 18.9802Z" fill="#F4717A"/>
<path d="M11.5605 5.17015C12.1844 5.17015 12.6902 4.64406 12.6902 3.99511C12.6902 3.34615 12.1844 2.82007 11.5605 2.82007C10.9365 2.82007 10.4307 3.34615 10.4307 3.99511C10.4307 4.64406 10.9365 5.17015 11.5605 5.17015Z" fill="#063E8B"/>
<path d="M27.0751 23.4038C27.6991 23.4038 28.2049 22.8777 28.2049 22.2287C28.2049 21.5798 27.6991 21.0537 27.0751 21.0537C26.4511 21.0537 25.9453 21.5798 25.9453 22.2287C25.9453 22.8777 26.4511 23.4038 27.0751 23.4038Z" fill="#86D6F2"/>
<path d="M24.7792 14.2778C25.4032 14.2778 25.909 13.7517 25.909 13.1028C25.909 12.4538 25.4032 11.9277 24.7792 11.9277C24.1552 11.9277 23.6494 12.4538 23.6494 13.1028C23.6494 13.7517 24.1552 14.2778 24.7792 14.2778Z" fill="#F4717A"/>
<path d="M22.2372 3.9951C22.8612 3.9951 23.367 3.46901 23.367 2.82006C23.367 2.1711 22.8612 1.64502 22.2372 1.64502C21.6132 1.64502 21.1074 2.1711 21.1074 2.82006C21.1074 3.46901 21.6132 3.9951 22.2372 3.9951Z" fill="#F4717A"/>
</g>
<defs>
<clipPath id="clip0_1283_696">
<rect width="28.8447" height="30" fill="white" transform="translate(0.268555)"/>
</clipPath>
</defs>
</svg>
